<svg width="285" height="191" viewBox="0 0 285 191" fill="none" xmlns="http://www.w3.org/2000/svg">
	<mask id="path-1-inside-1_1_620" fill="white">
		<path fill-rule="evenodd" clip-rule="evenodd" d="M202.574 0.917906C198.695 2.60045 196.789 5.2442 196.188 9.77865C195.474 15.1636 195.345 15.4925 193.781 15.8849C192.962 16.0903 190.507 17.0838 188.325 18.0917L184.357 19.9251L181.489 17.7383C176.55 13.9714 172.846 13.073 169.022 14.7144C168.037 15.1374 164.437 18.3316 161.021 21.813C155.999 26.9319 154.735 28.5482 154.413 30.263C153.725 33.9309 154.428 36.5084 157.159 40.3365C158.566 42.3091 159.718 44.1986 159.718 44.5365C159.718 44.8749 159.12 46.3326 158.389 47.7763C157.659 49.2201 156.744 51.462 156.356 52.7577C155.731 54.8493 155.426 55.151 153.65 55.4404C145.309 56.8007 143.402 57.7948 141.328 61.8595C140.391 63.6962 140.24 65.1544 140.24 72.3282C140.24 76.9122 140.506 81.3681 140.832 82.2297C141.542 84.1115 143.89 86.6846 145.805 87.6809C146.887 88.2436 153.806 89.6406 155.512 89.6406C155.682 89.6406 155.822 89.9189 155.822 90.2589C155.822 90.599 156.727 93.112 157.833 95.8437L159.843 100.81L158.25 103.024C153.814 109.19 153.143 112.25 155.266 116.635C156.672 119.539 166.132 128.872 168.802 129.988C172.962 131.726 176.338 130.957 181.363 127.126C182.708 126.1 184.101 125.262 184.459 125.262C184.817 125.262 186.35 125.861 187.867 126.592C189.383 127.324 191.684 128.24 192.979 128.628C194.275 129.016 195.335 129.434 195.335 129.557C195.335 131.19 196.747 138.124 197.295 139.176C198.291 141.091 200.864 143.439 202.745 144.15C203.607 144.475 208.077 144.742 212.678 144.742C222.131 144.742 223.737 144.301 226.502 140.946C228.021 139.103 228.524 137.506 229.532 131.33C229.821 129.553 230.123 129.249 232.214 128.624C233.51 128.236 235.751 127.321 237.195 126.59C238.638 125.859 240.096 125.262 240.434 125.262C240.772 125.262 242.661 126.413 244.634 127.82C248.462 130.552 251.039 131.255 254.706 130.567C256.421 130.245 258.037 128.981 263.155 123.958C266.636 120.542 269.83 116.942 270.253 115.957C271.894 112.132 270.996 108.428 267.23 103.488L265.043 100.62L266.876 96.6518C267.884 94.4695 268.879 92.0055 269.087 91.1767C269.39 89.9701 269.87 89.6083 271.496 89.3612C279.619 88.1261 282.01 86.8415 283.888 82.7062C285.268 79.6689 285.4 65.672 284.079 62.5096C282.441 58.5907 279.539 56.6443 274.361 55.9931C269.909 55.4338 269.502 55.2484 269.086 53.5909C268.879 52.7655 267.884 50.3038 266.876 48.1214L265.043 44.1536L267.23 41.2855C271.045 36.2819 271.937 32.4615 270.163 28.7241C269.063 26.4054 257.822 15.3027 255.794 14.5313C252.111 13.1309 248.457 14.0988 243.685 17.7383L240.817 19.9251L236.85 18.0917C234.668 17.0838 232.206 16.0892 231.381 15.8815C229.723 15.4658 229.538 15.0584 228.979 10.6063C228.328 5.42787 226.382 2.52475 222.463 0.887294C219.594 -0.311578 205.358 -0.289871 202.574 0.917906ZM217.245 13.5283C217.429 14.2174 217.585 15.4068 217.591 16.1721C217.629 20.9965 220.549 25.0657 224.996 26.4883C226.588 26.9976 230.35 28.5465 233.354 29.9296C238.168 32.1454 239.169 32.4153 241.771 32.1999C244.199 31.9984 245.391 31.4786 248.473 29.279L252.222 26.6035L255.294 29.6753L258.365 32.747L255.69 36.4967C251.802 41.9462 251.698 44.2838 255.023 51.595C256.396 54.6122 257.944 58.3842 258.463 59.9766C259.914 64.4292 263.983 67.3451 268.796 67.3819C272.473 67.4102 272.691 67.6913 272.691 72.3922C272.691 77.0257 272.459 77.3958 269.553 77.3958C263.951 77.3958 259.721 80.56 258.015 86.0262C257.443 87.8606 256.003 91.3938 254.815 93.8767C251.604 100.592 251.83 103.259 256.081 108.892L258.413 111.979L255.276 115.116L252.139 118.253L249.754 116.444C244.032 112.104 240.574 111.524 235.527 114.061C233.777 114.94 230.521 116.315 228.294 117.115C219.742 120.186 218.614 121.55 217.299 130.41L216.989 132.497H212.599C207.703 132.497 207.97 132.735 207.294 127.779C206.496 121.933 204.353 119.644 197.561 117.381C195.572 116.718 192.198 115.34 190.064 114.318C184.145 111.484 181.759 111.801 175.668 116.234L172.975 118.194L169.845 115.062L166.714 111.932L167.941 110.387C170.483 107.186 172.114 103.967 172.377 101.63C172.601 99.6457 172.251 98.3321 170.416 94.288C169.188 91.5786 167.78 88.11 167.288 86.5794C165.442 80.8366 162.716 78.3749 157.404 77.6541C152.115 76.9355 152.483 77.3279 152.483 72.41V68.0024L155.127 67.6446C160.8 66.8776 164.094 65.2051 165.576 62.3392C166.034 61.4532 167.064 58.9057 167.864 56.6783C168.663 54.4508 170.038 51.1948 170.918 49.4438C173.454 44.3968 172.874 40.9382 168.534 35.2154L166.725 32.8305L169.862 29.6936L172.999 26.5562L176.086 28.8877C181.718 33.14 184.385 33.3654 191.099 30.1539C193.582 28.9662 197.115 27.5257 198.949 26.9536C204.415 25.2477 207.578 21.0171 207.578 15.4146C207.578 12.5081 207.949 12.276 212.582 12.276C216.599 12.276 216.934 12.3656 217.245 13.5283ZM204.18 48.1053C193.371 51.9217 186.987 61.0463 186.987 72.6788C186.987 86.9573 198.145 97.9893 212.587 97.9893C224.128 97.9893 233.356 91.2819 237.091 80.1787C238.11 77.1493 238.267 75.6877 238.057 71.1877C237.834 66.4401 237.568 65.3164 235.77 61.5289C232.419 54.4725 225.837 49.032 218.645 47.3739C214.3 46.3721 208.219 46.6799 204.18 48.1053ZM219.464 60.025C224.125 62.563 226.699 66.9499 226.715 72.3866C226.741 81.5095 218.402 88.3365 209.631 86.3735C197.022 83.551 194.103 66.8208 205.096 60.3779C206.512 59.548 208.463 58.6686 209.433 58.4231C212.199 57.7224 216.493 58.4087 219.464 60.025ZM62.8834 97.908C60.8938 98.7596 56.6554 100.55 53.4648 101.886C46.9931 104.596 44.2739 106.648 42.7735 109.951C41.3923 112.991 41.4813 115.481 43.1987 121.887L44.6624 127.344L37.8873 134.12L31.1122 140.895L25.9138 139.479C19.7904 137.811 16.6772 137.715 13.6264 139.101C10.0201 140.74 8.28992 143.314 4.21842 153.1C0.00500964 163.225 -0.473041 165.288 0.54873 168.938C1.5193 172.405 3.91512 174.86 9.65784 178.27L14.5886 181.198L14.5858 190.629L14.5836 200.061L9.57436 203.012C2.34573 207.273 0.00890548 210.414 1.16459e-06 215.886C-0.00166839 216.903 1.79199 222.163 3.98579 227.574C7.36776 235.914 8.33889 237.768 10.3613 239.745C12.7321 242.063 15.5019 243.248 18.5633 243.253C19.4392 243.255 22.7227 242.591 25.8598 241.778L31.5641 240.299L33.7279 242.752C36.4153 245.797 38.4611 247.846 41.961 250.999L44.6863 253.453L43.211 259.146C40.9871 267.728 41.3739 270.671 45.2467 274.634C47.224 276.657 49.0772 277.628 57.4161 281.01C62.8272 283.204 68.0863 284.998 69.103 284.997C74.5742 284.988 77.7157 282.651 81.9753 275.421L84.9266 270.411L94.3573 270.409L103.788 270.406L106.715 275.338C110.979 282.519 114.304 285 119.663 285C121.342 285 135.516 279.63 140.205 277.217C144.286 275.117 146.918 270.949 146.918 266.587C146.918 265.317 146.281 261.939 145.501 259.08L144.086 253.881L150.861 247.105L157.636 240.329L163.093 241.793C166.093 242.598 169.254 243.255 170.116 243.253C174.482 243.245 178.849 240.545 180.83 236.63C181.388 235.53 183.376 230.934 185.25 226.417C189.018 217.333 189.423 214.63 187.602 210.697C186.26 207.8 184.386 206.115 178.749 202.744L174.129 199.98V190.606V181.231L178.749 178.516C184.369 175.212 186.256 173.53 187.602 170.623C189.489 166.545 189.058 164.035 184.63 153.318C180.345 142.946 178.966 140.905 175.022 139.104C172.022 137.734 169.556 137.807 163.045 139.458L157.543 140.852L150.836 134.144L144.129 127.436L145.523 121.934C147.174 115.422 147.247 112.956 145.877 109.956C144.076 106.012 142.035 104.633 131.665 100.347C120.952 95.9194 118.442 95.488 114.361 97.3715C111.479 98.7023 110.122 100.224 106.617 106.057L103.739 110.849H94.3729H85.0073L82.2436 106.228C78.8733 100.591 77.1887 98.7162 74.292 97.3748C71.0698 95.8826 67.1914 96.0641 62.8834 97.908ZM72.6225 114.844C75.3233 119.426 76.4536 120.811 78.5333 122.086L81.1055 123.664L94.1598 123.688C110.738 123.719 111.174 123.551 116.022 115.243C117.183 113.253 118.471 111.074 118.885 110.401L119.638 109.177L126.46 111.973C130.213 113.511 133.468 114.949 133.695 115.169C133.922 115.387 133.487 117.811 132.728 120.554C130.098 130.063 131.026 133.5 137.806 139.354C140.114 141.348 143.633 144.868 145.627 147.176C151.481 153.956 154.917 154.885 164.425 152.254C167.168 151.495 169.585 151.06 169.797 151.287C170.008 151.514 171.446 154.77 172.99 158.523L175.798 165.348L174.575 166.1C173.903 166.513 171.725 167.801 169.735 168.963C165.149 171.639 163.777 172.875 162.393 175.576C161.374 177.563 161.281 178.843 161.281 190.786V203.826L162.884 206.426C164.137 208.46 165.629 209.723 169.718 212.215C172.595 213.969 175.163 215.474 175.424 215.562C175.685 215.649 174.739 218.471 173.321 221.835C171.904 225.199 170.532 228.492 170.273 229.153L169.801 230.355L164.62 229.025C158.63 227.486 154.235 227.313 151.896 228.523C149.425 229.801 133.004 246.463 132.112 248.597C131.001 251.255 131.164 254.468 132.714 260.507C133.46 263.413 133.893 265.938 133.677 266.119C133.012 266.675 120.678 271.642 119.962 271.642C119.593 271.642 118.183 269.701 116.829 267.329C115.476 264.956 113.541 262.096 112.531 260.972C109.64 257.757 107.753 257.408 93.7274 257.502C77.6712 257.609 77.5176 257.678 71.9864 267.268C70.599 269.674 69.1732 271.647 68.817 271.653C68.4614 271.659 65.1345 270.383 61.4247 268.818L54.6786 265.973L55.9875 260.876C57.5124 254.936 57.6716 250.564 56.4489 248.2C55.3181 246.013 38.9798 229.673 36.7932 228.542C34.4269 227.318 30.0565 227.478 24.0984 229.008L18.9829 230.322L16.168 223.638C14.6198 219.962 13.3531 216.633 13.3531 216.239C13.3531 215.846 14.9186 214.646 16.8314 213.573C22.4027 210.45 24.9265 208.371 26.2165 205.842C27.3323 203.654 27.4303 202.579 27.5205 191.502C27.5744 184.916 27.3785 178.603 27.0853 177.472C26.2588 174.285 23.7339 171.718 18.3217 168.56C15.5892 166.966 13.3531 165.367 13.3531 165.005C13.3531 164.301 18.3267 151.961 18.8755 151.306C19.0563 151.089 21.5818 151.523 24.4874 152.269C30.5251 153.819 33.7379 153.981 36.3953 152.871C38.5295 151.979 55.1895 135.556 56.4678 133.084C57.6766 130.746 57.5041 126.35 55.9675 120.367L54.6397 115.193L56.6743 114.362C57.794 113.905 60.9634 112.559 63.7182 111.371C66.4729 110.183 68.8521 109.204 69.0051 109.195C69.1581 109.185 70.786 111.727 72.6225 114.844ZM88.2267 147.553C80.8139 148.71 72.997 152.107 67.212 156.685C60.2672 162.181 54.5489 171.138 52.3062 180.035C50.7897 186.051 50.7891 195.289 52.3051 201.217C59.1786 228.096 88.8912 241.699 113.805 229.372C124.108 224.274 131.701 215.494 135.521 204.261C144.713 177.233 125.23 148.866 96.3981 147.299C93.7285 147.154 90.0516 147.268 88.2267 147.553ZM100.448 160.607C121.397 165.005 131.791 189.219 120.295 206.841C112.118 219.375 97.3882 224.362 83.656 219.245C66.8603 212.986 59.0901 193.626 66.8219 177.302C70.7509 169.005 78.8583 162.605 87.9268 160.642C92.6572 159.617 95.6941 159.609 100.448 160.607Z" />
	</mask>
	<path fill-rule="evenodd" clip-rule="evenodd" d="M202.574 0.917906C198.695 2.60045 196.789 5.2442 196.188 9.77865C195.474 15.1636 195.345 15.4925 193.781 15.8849C192.962 16.0903 190.507 17.0838 188.325 18.0917L184.357 19.9251L181.489 17.7383C176.55 13.9714 172.846 13.073 169.022 14.7144C168.037 15.1374 164.437 18.3316 161.021 21.813C155.999 26.9319 154.735 28.5482 154.413 30.263C153.725 33.9309 154.428 36.5084 157.159 40.3365C158.566 42.3091 159.718 44.1986 159.718 44.5365C159.718 44.8749 159.12 46.3326 158.389 47.7763C157.659 49.2201 156.744 51.462 156.356 52.7577C155.731 54.8493 155.426 55.151 153.65 55.4404C145.309 56.8007 143.402 57.7948 141.328 61.8595C140.391 63.6962 140.24 65.1544 140.24 72.3282C140.24 76.9122 140.506 81.3681 140.832 82.2297C141.542 84.1115 143.89 86.6846 145.805 87.6809C146.887 88.2436 153.806 89.6406 155.512 89.6406C155.682 89.6406 155.822 89.9189 155.822 90.2589C155.822 90.599 156.727 93.112 157.833 95.8437L159.843 100.81L158.25 103.024C153.814 109.19 153.143 112.25 155.266 116.635C156.672 119.539 166.132 128.872 168.802 129.988C172.962 131.726 176.338 130.957 181.363 127.126C182.708 126.1 184.101 125.262 184.459 125.262C184.817 125.262 186.35 125.861 187.867 126.592C189.383 127.324 191.684 128.24 192.979 128.628C194.275 129.016 195.335 129.434 195.335 129.557C195.335 131.19 196.747 138.124 197.295 139.176C198.291 141.091 200.864 143.439 202.745 144.15C203.607 144.475 208.077 144.742 212.678 144.742C222.131 144.742 223.737 144.301 226.502 140.946C228.021 139.103 228.524 137.506 229.532 131.33C229.821 129.553 230.123 129.249 232.214 128.624C233.51 128.236 235.751 127.321 237.195 126.59C238.638 125.859 240.096 125.262 240.434 125.262C240.772 125.262 242.661 126.413 244.634 127.82C248.462 130.552 251.039 131.255 254.706 130.567C256.421 130.245 258.037 128.981 263.155 123.958C266.636 120.542 269.83 116.942 270.253 115.957C271.894 112.132 270.996 108.428 267.23 103.488L265.043 100.62L266.876 96.6518C267.884 94.4695 268.879 92.0055 269.087 91.1767C269.39 89.9701 269.87 89.6083 271.496 89.3612C279.619 88.1261 282.01 86.8415 283.888 82.7062C285.268 79.6689 285.4 65.672 284.079 62.5096C282.441 58.5907 279.539 56.6443 274.361 55.9931C269.909 55.4338 269.502 55.2484 269.086 53.5909C268.879 52.7655 267.884 50.3038 266.876 48.1214L265.043 44.1536L267.23 41.2855C271.045 36.2819 271.937 32.4615 270.163 28.7241C269.063 26.4054 257.822 15.3027 255.794 14.5313C252.111 13.1309 248.457 14.0988 243.685 17.7383L240.817 19.9251L236.85 18.0917C234.668 17.0838 232.206 16.0892 231.381 15.8815C229.723 15.4658 229.538 15.0584 228.979 10.6063C228.328 5.42787 226.382 2.52475 222.463 0.887294C219.594 -0.311578 205.358 -0.289871 202.574 0.917906ZM217.245 13.5283C217.429 14.2174 217.585 15.4068 217.591 16.1721C217.629 20.9965 220.549 25.0657 224.996 26.4883C226.588 26.9976 230.35 28.5465 233.354 29.9296C238.168 32.1454 239.169 32.4153 241.771 32.1999C244.199 31.9984 245.391 31.4786 248.473 29.279L252.222 26.6035L255.294 29.6753L258.365 32.747L255.69 36.4967C251.802 41.9462 251.698 44.2838 255.023 51.595C256.396 54.6122 257.944 58.3842 258.463 59.9766C259.914 64.4292 263.983 67.3451 268.796 67.3819C272.473 67.4102 272.691 67.6913 272.691 72.3922C272.691 77.0257 272.459 77.3958 269.553 77.3958C263.951 77.3958 259.721 80.56 258.015 86.0262C257.443 87.8606 256.003 91.3938 254.815 93.8767C251.604 100.592 251.83 103.259 256.081 108.892L258.413 111.979L255.276 115.116L252.139 118.253L249.754 116.444C244.032 112.104 240.574 111.524 235.527 114.061C233.777 114.94 230.521 116.315 228.294 117.115C219.742 120.186 218.614 121.55 217.299 130.41L216.989 132.497H212.599C207.703 132.497 207.97 132.735 207.294 127.779C206.496 121.933 204.353 119.644 197.561 117.381C195.572 116.718 192.198 115.34 190.064 114.318C184.145 111.484 181.759 111.801 175.668 116.234L172.975 118.194L169.845 115.062L166.714 111.932L167.941 110.387C170.483 107.186 172.114 103.967 172.377 101.63C172.601 99.6457 172.251 98.3321 170.416 94.288C169.188 91.5786 167.78 88.11 167.288 86.5794C165.442 80.8366 162.716 78.3749 157.404 77.6541C152.115 76.9355 152.483 77.3279 152.483 72.41V68.0024L155.127 67.6446C160.8 66.8776 164.094 65.2051 165.576 62.3392C166.034 61.4532 167.064 58.9057 167.864 56.6783C168.663 54.4508 170.038 51.1948 170.918 49.4438C173.454 44.3968 172.874 40.9382 168.534 35.2154L166.725 32.8305L169.862 29.6936L172.999 26.5562L176.086 28.8877C181.718 33.14 184.385 33.3654 191.099 30.1539C193.582 28.9662 197.115 27.5257 198.949 26.9536C204.415 25.2477 207.578 21.0171 207.578 15.4146C207.578 12.5081 207.949 12.276 212.582 12.276C216.599 12.276 216.934 12.3656 217.245 13.5283ZM204.18 48.1053C193.371 51.9217 186.987 61.0463 186.987 72.6788C186.987 86.9573 198.145 97.9893 212.587 97.9893C224.128 97.9893 233.356 91.2819 237.091 80.1787C238.11 77.1493 238.267 75.6877 238.057 71.1877C237.834 66.4401 237.568 65.3164 235.77 61.5289C232.419 54.4725 225.837 49.032 218.645 47.3739C214.3 46.3721 208.219 46.6799 204.18 48.1053ZM219.464 60.025C224.125 62.563 226.699 66.9499 226.715 72.3866C226.741 81.5095 218.402 88.3365 209.631 86.3735C197.022 83.551 194.103 66.8208 205.096 60.3779C206.512 59.548 208.463 58.6686 209.433 58.4231C212.199 57.7224 216.493 58.4087 219.464 60.025ZM62.8834 97.908C60.8938 98.7596 56.6554 100.55 53.4648 101.886C46.9931 104.596 44.2739 106.648 42.7735 109.951C41.3923 112.991 41.4813 115.481 43.1987 121.887L44.6624 127.344L37.8873 134.12L31.1122 140.895L25.9138 139.479C19.7904 137.811 16.6772 137.715 13.6264 139.101C10.0201 140.74 8.28992 143.314 4.21842 153.1C0.00500964 163.225 -0.473041 165.288 0.54873 168.938C1.5193 172.405 3.91512 174.86 9.65784 178.27L14.5886 181.198L14.5858 190.629L14.5836 200.061L9.57436 203.012C2.34573 207.273 0.00890548 210.414 1.16459e-06 215.886C-0.00166839 216.903 1.79199 222.163 3.98579 227.574C7.36776 235.914 8.33889 237.768 10.3613 239.745C12.7321 242.063 15.5019 243.248 18.5633 243.253C19.4392 243.255 22.7227 242.591 25.8598 241.778L31.5641 240.299L33.7279 242.752C36.4153 245.797 38.4611 247.846 41.961 250.999L44.6863 253.453L43.211 259.146C40.9871 267.728 41.3739 270.671 45.2467 274.634C47.224 276.657 49.0772 277.628 57.4161 281.01C62.8272 283.204 68.0863 284.998 69.103 284.997C74.5742 284.988 77.7157 282.651 81.9753 275.421L84.9266 270.411L94.3573 270.409L103.788 270.406L106.715 275.338C110.979 282.519 114.304 285 119.663 285C121.342 285 135.516 279.63 140.205 277.217C144.286 275.117 146.918 270.949 146.918 266.587C146.918 265.317 146.281 261.939 145.501 259.08L144.086 253.881L150.861 247.105L157.636 240.329L163.093 241.793C166.093 242.598 169.254 243.255 170.116 243.253C174.482 243.245 178.849 240.545 180.83 236.63C181.388 235.53 183.376 230.934 185.25 226.417C189.018 217.333 189.423 214.63 187.602 210.697C186.26 207.8 184.386 206.115 178.749 202.744L174.129 199.98V190.606V181.231L178.749 178.516C184.369 175.212 186.256 173.53 187.602 170.623C189.489 166.545 189.058 164.035 184.63 153.318C180.345 142.946 178.966 140.905 175.022 139.104C172.022 137.734 169.556 137.807 163.045 139.458L157.543 140.852L150.836 134.144L144.129 127.436L145.523 121.934C147.174 115.422 147.247 112.956 145.877 109.956C144.076 106.012 142.035 104.633 131.665 100.347C120.952 95.9194 118.442 95.488 114.361 97.3715C111.479 98.7023 110.122 100.224 106.617 106.057L103.739 110.849H94.3729H85.0073L82.2436 106.228C78.8733 100.591 77.1887 98.7162 74.292 97.3748C71.0698 95.8826 67.1914 96.0641 62.8834 97.908ZM72.6225 114.844C75.3233 119.426 76.4536 120.811 78.5333 122.086L81.1055 123.664L94.1598 123.688C110.738 123.719 111.174 123.551 116.022 115.243C117.183 113.253 118.471 111.074 118.885 110.401L119.638 109.177L126.46 111.973C130.213 113.511 133.468 114.949 133.695 115.169C133.922 115.387 133.487 117.811 132.728 120.554C130.098 130.063 131.026 133.5 137.806 139.354C140.114 141.348 143.633 144.868 145.627 147.176C151.481 153.956 154.917 154.885 164.425 152.254C167.168 151.495 169.585 151.06 169.797 151.287C170.008 151.514 171.446 154.77 172.99 158.523L175.798 165.348L174.575 166.1C173.903 166.513 171.725 167.801 169.735 168.963C165.149 171.639 163.777 172.875 162.393 175.576C161.374 177.563 161.281 178.843 161.281 190.786V203.826L162.884 206.426C164.137 208.46 165.629 209.723 169.718 212.215C172.595 213.969 175.163 215.474 175.424 215.562C175.685 215.649 174.739 218.471 173.321 221.835C171.904 225.199 170.532 228.492 170.273 229.153L169.801 230.355L164.62 229.025C158.63 227.486 154.235 227.313 151.896 228.523C149.425 229.801 133.004 246.463 132.112 248.597C131.001 251.255 131.164 254.468 132.714 260.507C133.46 263.413 133.893 265.938 133.677 266.119C133.012 266.675 120.678 271.642 119.962 271.642C119.593 271.642 118.183 269.701 116.829 267.329C115.476 264.956 113.541 262.096 112.531 260.972C109.64 257.757 107.753 257.408 93.7274 257.502C77.6712 257.609 77.5176 257.678 71.9864 267.268C70.599 269.674 69.1732 271.647 68.817 271.653C68.4614 271.659 65.1345 270.383 61.4247 268.818L54.6786 265.973L55.9875 260.876C57.5124 254.936 57.6716 250.564 56.4489 248.2C55.3181 246.013 38.9798 229.673 36.7932 228.542C34.4269 227.318 30.0565 227.478 24.0984 229.008L18.9829 230.322L16.168 223.638C14.6198 219.962 13.3531 216.633 13.3531 216.239C13.3531 215.846 14.9186 214.646 16.8314 213.573C22.4027 210.45 24.9265 208.371 26.2165 205.842C27.3323 203.654 27.4303 202.579 27.5205 191.502C27.5744 184.916 27.3785 178.603 27.0853 177.472C26.2588 174.285 23.7339 171.718 18.3217 168.56C15.5892 166.966 13.3531 165.367 13.3531 165.005C13.3531 164.301 18.3267 151.961 18.8755 151.306C19.0563 151.089 21.5818 151.523 24.4874 152.269C30.5251 153.819 33.7379 153.981 36.3953 152.871C38.5295 151.979 55.1895 135.556 56.4678 133.084C57.6766 130.746 57.5041 126.35 55.9675 120.367L54.6397 115.193L56.6743 114.362C57.794 113.905 60.9634 112.559 63.7182 111.371C66.4729 110.183 68.8521 109.204 69.0051 109.195C69.1581 109.185 70.786 111.727 72.6225 114.844ZM88.2267 147.553C80.8139 148.71 72.997 152.107 67.212 156.685C60.2672 162.181 54.5489 171.138 52.3062 180.035C50.7897 186.051 50.7891 195.289 52.3051 201.217C59.1786 228.096 88.8912 241.699 113.805 229.372C124.108 224.274 131.701 215.494 135.521 204.261C144.713 177.233 125.23 148.866 96.3981 147.299C93.7285 147.154 90.0516 147.268 88.2267 147.553ZM100.448 160.607C121.397 165.005 131.791 189.219 120.295 206.841C112.118 219.375 97.3882 224.362 83.656 219.245C66.8603 212.986 59.0901 193.626 66.8219 177.302C70.7509 169.005 78.8583 162.605 87.9268 160.642C92.6572 159.617 95.6941 159.609 100.448 160.607Z" fill="rgba(42, 95, 203, 0.06)" stroke="#F2F5FC" stroke-width="4" mask="url(#path-1-inside-1_1_620)" />
</svg>