<svg width="45" height="45" viewBox="0 0 45 45" fill="none" xmlns="http://www.w3.org/2000/svg">
<path d="M41.0487 44.322C41.9526 45.2259 43.4181 45.2259 44.322 44.322C45.2259 43.4181 45.2259 41.9526 44.322 41.0487L3.95123 0.677924C3.04733 -0.225974 1.58182 -0.225975 0.677924 0.677923C-0.225974 1.58182 -0.225975 3.04733 0.677923 3.95123L41.0487 44.322Z" fill="white"/>
<path d="M0.677973 41.0488C-0.225926 41.9527 -0.225927 43.4182 0.677972 44.3221C1.58187 45.226 3.04738 45.226 3.95128 44.3221L44.3221 3.95129C45.226 3.04739 45.226 1.58188 44.3221 0.677982C43.4182 -0.225916 41.9527 -0.225917 41.0488 0.677982L0.677973 41.0488Z" fill="white"/>
</svg>
