<svg width="24" height="32" viewBox="0 0 24 32" fill="none" xmlns="http://www.w3.org/2000/svg">
<path d="M23.2282 8.34316L15.2284 0.343256C15.1278 0.23159 15.0042 0.1431 14.8661 0.0839032C14.728 0.0247067 14.5786 -0.00378345 14.4284 0.000402741H3.00003C2.39439 0.00221155 1.81407 0.243605 1.38581 0.671863C0.957557 1.10012 0.716164 1.68044 0.714355 2.28609V29.7143C0.716164 30.32 0.957557 30.9003 1.38581 31.3285C1.81407 31.7568 2.39439 31.9982 3.00003 32H21.2854C21.8911 31.9982 22.4714 31.7568 22.8996 31.3285C23.3279 30.9003 23.5693 30.32 23.5711 29.7143V9.14314C23.5753 8.99293 23.5468 8.84359 23.4876 8.70547C23.4284 8.56734 23.3399 8.44372 23.2282 8.34316ZM14.4284 2.74323L20.8283 9.14314H14.4284V2.74323ZM21.2854 29.7143H3.00003V2.28609H12.1427V9.14314C12.1445 9.74879 12.3859 10.3291 12.8142 10.7574C13.2424 11.1856 13.8228 11.427 14.4284 11.4288H21.2854V29.7143Z" fill="#2A5FCB"/>
</svg>
