<svg width="25" height="24" viewBox="0 0 25 24" fill="none" xmlns="http://www.w3.org/2000/svg">
<path d="M9.07368 0C11.5123 0 13.7241 0.964101 15.312 2.55203C16.9566 4.13996 17.9207 6.35174 17.9207 8.79033C17.9207 10.6051 17.3536 12.3065 16.3328 13.7243L23.7621 21.3804C24.0457 21.6639 24.2158 22.0609 24.159 22.4579C24.159 22.8549 23.9889 23.2519 23.7054 23.5922C23.3651 23.8757 22.9681 24.0459 22.5711 23.9891C22.1741 23.9891 21.7772 23.8757 21.4369 23.5354L14.121 15.9927C12.6466 16.9569 10.9452 17.524 9.07368 17.524C6.57839 17.524 4.36661 16.5599 2.77867 14.9719C1.19074 13.384 0.169922 11.1722 0.169922 8.79033C0.169922 6.35174 1.19074 4.13996 2.77867 2.55203C4.36661 0.964101 6.57839 0 9.07368 0ZM15.5956 14.6884C15.4821 14.7451 15.4254 14.8585 15.312 14.9719C15.1986 15.0286 15.1419 15.1421 15.0285 15.2555L22.3443 22.7415C22.401 22.7982 22.5144 22.8549 22.5711 22.8549C22.6846 22.8549 22.798 22.7982 22.8547 22.7415C22.9681 22.6848 22.9681 22.5713 22.9681 22.4579C22.9681 22.3445 22.9681 22.2878 22.9114 22.1743L15.5956 14.6884ZM14.518 3.346C13.1569 1.98491 11.172 1.13424 9.07368 1.13424C6.91864 1.13424 4.93373 1.98491 3.57264 3.346C2.15484 4.76379 1.30416 6.63527 1.30416 8.79033C1.30416 10.8887 2.15484 12.7602 3.57264 14.178C4.93373 15.5391 6.91864 16.3897 9.07368 16.3897C11.172 16.3897 13.1569 15.5391 14.518 14.178C15.9358 12.7602 16.8432 10.8887 16.8432 8.79033C16.8432 6.63527 15.9358 4.76379 14.518 3.346Z" fill="#9E9E9E"/>
</svg>
